<svg xmlns="http://www.w3.org/2000/svg" xml:lang="zh-CN" width="1680" height="590" viewBox="0 0 1680 590" role="img" aria-labelledby="title desc">
  <title id="title">学习式平衡层级 Skill code 构建</title>
  <desc id="desc">从冻结语义表征和 Skill 协同图出发，学习图正则化残差码本，再执行全局容量平衡硬分配，并以 raw 和 assigned 两组指标进行质量检查。</desc>
  <defs>
    <marker id="arrow" markerWidth="9" markerHeight="9" refX="7.5" refY="4.5" orient="auto" markerUnits="strokeWidth">
      <path d="M0,0 L9,4.5 L0,9 z" fill="#475569"/>
    </marker>
    <marker id="arrow-blue" markerWidth="9" markerHeight="9" refX="7.5" refY="4.5" orient="auto" markerUnits="strokeWidth">
      <path d="M0,0 L9,4.5 L0,9 z" fill="#2563eb"/>
    </marker>
    <marker id="arrow-green" markerWidth="9" markerHeight="9" refX="7.5" refY="4.5" orient="auto" markerUnits="strokeWidth">
      <path d="M0,0 L9,4.5 L0,9 z" fill="#059669"/>
    </marker>
    <style>
      text { font-family: Arial, "Noto Sans CJK SC", "Microsoft YaHei", sans-serif; fill: #111827; }
      .panel-title { font-size: 21px; font-weight: 700; }
      .phase { font-size: 11px; font-weight: 700; letter-spacing: 1px; }
      .label { font-size: 15px; font-weight: 650; }
      .small { font-size: 13px; font-weight: 500; fill: #475569; }
      .tiny { font-size: 11.5px; font-weight: 500; fill: #64748b; }
      .math { font-family: "Times New Roman", serif; font-size: 17px; font-style: italic; }
      .mono { font-family: "SFMono-Regular", Consolas, monospace; font-size: 12px; font-weight: 600; }
    </style>
  </defs>

  <rect width="1680" height="590" fill="#ffffff"/>
  <rect x="20" y="20" width="360" height="550" rx="10" fill="#f8fafc" stroke="#cbd5e1" stroke-width="1.4"/>
  <rect x="400" y="20" width="530" height="550" rx="10" fill="#fafafa" stroke="#cbd5e1" stroke-width="1.4"/>
  <rect x="950" y="20" width="410" height="550" rx="10" fill="#f8fafc" stroke="#cbd5e1" stroke-width="1.4"/>
  <rect x="1380" y="20" width="280" height="550" rx="10" fill="#fafafa" stroke="#cbd5e1" stroke-width="1.4"/>

  <path d="M380 295 H392" fill="none" stroke="#94a3b8" stroke-width="2.2" marker-end="url(#arrow)"/>
  <path d="M930 295 H942" fill="none" stroke="#94a3b8" stroke-width="2.2" marker-end="url(#arrow)"/>
  <path d="M1360 295 H1372" fill="none" stroke="#94a3b8" stroke-width="2.2" marker-end="url(#arrow)"/>

  <!-- (a) Representations -->
  <rect x="42" y="42" width="58" height="22" rx="11" fill="#e0f2fe"/>
  <text x="71" y="57" text-anchor="middle" class="phase" fill="#0369a1">INPUT</text>
  <text x="42" y="91" class="panel-title">(a) Skill 表征与协同图</text>

  <rect x="45" y="125" width="112" height="88" rx="8" fill="#ffffff" stroke="#cbd5e1" stroke-width="1.2"/>
  <path d="M65 147 H137 M65 163 H126 M65 179 H133" fill="none" stroke="#64748b" stroke-width="3" stroke-linecap="round"/>
  <text x="101" y="201" text-anchor="middle" class="small">Skill 文档</text>
  <path d="M157 169 H187" fill="none" stroke="#475569" stroke-width="1.8" marker-end="url(#arrow)"/>

  <rect x="195" y="125" width="118" height="88" rx="8" fill="#eff6ff" stroke="#60a5fa" stroke-width="1.3"/>
  <path d="M225 150 L232 143 L239 150 L246 143 L253 150 L260 143 L267 150 L274 143 L281 150" fill="none" stroke="#2563eb" stroke-width="2"/>
  <text x="254" y="178" text-anchor="middle" class="label">Frozen</text>
  <text x="254" y="199" text-anchor="middle" class="small">text encoder</text>
  <path d="M313 169 H330" fill="none" stroke="#2563eb" stroke-width="1.8" marker-end="url(#arrow-blue)"/>

  <circle cx="348" cy="148" r="5" fill="#2563eb"/>
  <circle cx="342" cy="166" r="5" fill="#60a5fa"/>
  <circle cx="352" cy="184" r="5" fill="#93c5fd"/>
  <text x="347" y="207" text-anchor="middle" class="math">xᵢ</text>

  <line x1="45" y1="238" x2="355" y2="238" stroke="#e2e8f0" stroke-width="1.2"/>

  <rect x="45" y="268" width="130" height="128" rx="8" fill="#ffffff" stroke="#cbd5e1" stroke-width="1.2"/>
  <text x="110" y="293" text-anchor="middle" class="label">Query targets</text>
  <rect x="59" y="310" width="102" height="27" rx="5" fill="#f1f5f9"/>
  <circle cx="78" cy="323.5" r="6" fill="#2563eb"/>
  <circle cx="96" cy="323.5" r="6" fill="#059669"/>
  <rect x="59" y="345" width="102" height="27" rx="5" fill="#f1f5f9"/>
  <circle cx="78" cy="358.5" r="6" fill="#2563eb"/>
  <circle cx="96" cy="358.5" r="6" fill="#f59e0b"/>
  <text x="145" y="363" text-anchor="middle" class="small">…</text>
  <text x="110" y="387" text-anchor="middle" class="tiny">按原始 query 去重</text>
  <path d="M175 332 H205" fill="none" stroke="#475569" stroke-width="1.8" marker-end="url(#arrow)"/>

  <rect x="213" y="268" width="142" height="128" rx="8" fill="#f0fdf4" stroke="#86efac" stroke-width="1.2"/>
  <line x1="251" y1="313" x2="310" y2="300" stroke="#059669" stroke-width="5" stroke-linecap="round"/>
  <line x1="251" y1="313" x2="278" y2="359" stroke="#059669" stroke-width="2.2"/>
  <line x1="310" y1="300" x2="326" y2="352" stroke="#059669" stroke-width="3.4"/>
  <line x1="278" y1="359" x2="326" y2="352" stroke="#059669" stroke-width="1.4"/>
  <circle cx="251" cy="313" r="10" fill="#dbeafe" stroke="#2563eb"/>
  <circle cx="310" cy="300" r="10" fill="#dcfce7" stroke="#059669"/>
  <circle cx="278" cy="359" r="10" fill="#fef3c7" stroke="#f59e0b"/>
  <circle cx="326" cy="352" r="10" fill="#ede9fe" stroke="#7c3aed"/>
  <text x="284" y="387" text-anchor="middle" class="label">加权协同图</text>

  <rect x="57" y="442" width="286" height="75" rx="8" fill="#ffffff" stroke="#94a3b8" stroke-width="1.2"/>
  <text x="200" y="471" text-anchor="middle" class="label">离线输入</text>
  <text x="200" y="496" text-anchor="middle" class="small">normalized embeddings + co-use graph</text>

  <!-- (b) Codebook learning -->
  <rect x="422" y="42" width="58" height="22" rx="11" fill="#ede9fe"/>
  <text x="451" y="57" text-anchor="middle" class="phase" fill="#6d28d9">LEARN</text>
  <text x="422" y="91" class="panel-title">(b) 图正则化残差量化</text>

  <rect x="425" y="124" width="480" height="179" rx="9" fill="#ffffff" stroke="#cbd5e1" stroke-width="1.2"/>
  <circle cx="457" cy="201" r="22" fill="#f1f5f9" stroke="#94a3b8"/>
  <text x="457" y="207" text-anchor="middle" class="math">zᵢ</text>
  <path d="M479 201 H506" fill="none" stroke="#475569" stroke-width="1.8" marker-end="url(#arrow)"/>

  <rect x="514" y="153" width="128" height="96" rx="8" fill="#eff6ff" stroke="#60a5fa" stroke-width="1.3"/>
  <text x="578" y="176" text-anchor="middle" class="label">Level 1</text>
  <circle cx="543" cy="207" r="8" fill="#bfdbfe" stroke="#2563eb"/>
  <circle cx="568" cy="207" r="8" fill="#bfdbfe" stroke="#2563eb"/>
  <circle cx="593" cy="207" r="10" fill="#2563eb"/>
  <circle cx="618" cy="207" r="8" fill="#bfdbfe" stroke="#2563eb"/>
  <text x="578" y="237" text-anchor="middle" class="tiny">select e₁</text>

  <path d="M642 201 H674" fill="none" stroke="#475569" stroke-width="1.8" marker-end="url(#arrow)"/>
  <circle cx="695" cy="201" r="21" fill="#f8fafc" stroke="#94a3b8"/>
  <text x="695" y="207" text-anchor="middle" class="math">r¹</text>
  <path d="M716 201 H741" fill="none" stroke="#475569" stroke-width="1.8" marker-end="url(#arrow)"/>

  <rect x="749" y="153" width="128" height="96" rx="8" fill="#ecfeff" stroke="#22d3ee" stroke-width="1.3"/>
  <text x="813" y="176" text-anchor="middle" class="label">Level 2</text>
  <circle cx="778" cy="207" r="8" fill="#cffafe" stroke="#0891b2"/>
  <circle cx="803" cy="207" r="10" fill="#0891b2"/>
  <circle cx="828" cy="207" r="8" fill="#cffafe" stroke="#0891b2"/>
  <circle cx="853" cy="207" r="8" fill="#cffafe" stroke="#0891b2"/>
  <text x="813" y="237" text-anchor="middle" class="tiny">select e₂</text>

  <path d="M877 201 H889" fill="none" stroke="#475569" stroke-width="1.8" marker-end="url(#arrow)"/>
  <text x="895" y="206" text-anchor="middle" class="math">x̂</text>

  <rect x="425" y="330" width="216" height="104" rx="8" fill="#ffffff" stroke="#93c5fd" stroke-width="1.2"/>
  <text x="533" y="355" text-anchor="middle" class="label">Sinkhorn assignment</text>
  <rect x="456" y="374" width="20" height="16" fill="#dbeafe"/>
  <rect x="478" y="374" width="20" height="16" fill="#2563eb"/>
  <rect x="500" y="374" width="20" height="16" fill="#bfdbfe"/>
  <rect x="522" y="374" width="20" height="16" fill="#eff6ff"/>
  <rect x="456" y="392" width="20" height="16" fill="#93c5fd"/>
  <rect x="478" y="392" width="20" height="16" fill="#dbeafe"/>
  <rect x="500" y="392" width="20" height="16" fill="#2563eb"/>
  <rect x="522" y="392" width="20" height="16" fill="#bfdbfe"/>
  <path d="M566 376 H612 M566 399 H612" fill="none" stroke="#2563eb" stroke-width="3" stroke-linecap="round"/>
  <text x="533" y="424" text-anchor="middle" class="tiny">batch-balanced soft mass</text>

  <rect x="662" y="330" width="243" height="104" rx="8" fill="#ffffff" stroke="#86efac" stroke-width="1.2"/>
  <text x="783.5" y="355" text-anchor="middle" class="label">Graph regularization</text>
  <line x1="704" y1="389" x2="748" y2="375" stroke="#059669" stroke-width="4"/>
  <line x1="748" y1="375" x2="811" y2="396" stroke="#059669" stroke-width="2"/>
  <line x1="811" y1="396" x2="855" y2="377" stroke="#059669" stroke-width="3"/>
  <circle cx="704" cy="389" r="9" fill="#dcfce7" stroke="#059669"/>
  <circle cx="748" cy="375" r="9" fill="#dcfce7" stroke="#059669"/>
  <circle cx="811" cy="396" r="9" fill="#dcfce7" stroke="#059669"/>
  <circle cx="855" cy="377" r="9" fill="#dcfce7" stroke="#059669"/>
  <text x="783.5" y="424" text-anchor="middle" class="tiny">co-used Skills stay close</text>

  <path d="M533 330 V292 H578 V257" fill="none" stroke="#2563eb" stroke-width="1.6" stroke-dasharray="5 4" marker-end="url(#arrow-blue)"/>
  <path d="M783 330 V292 H813 V257" fill="none" stroke="#059669" stroke-width="1.6" stroke-dasharray="5 4" marker-end="url(#arrow-green)"/>

  <rect x="444" y="470" width="135" height="50" rx="7" fill="#f1f5f9" stroke="#cbd5e1"/>
  <text x="511.5" y="501" text-anchor="middle" class="small">reconstruction</text>
  <rect x="598" y="470" width="135" height="50" rx="7" fill="#eff6ff" stroke="#93c5fd"/>
  <text x="665.5" y="501" text-anchor="middle" class="small">VQ + commitment</text>
  <rect x="752" y="470" width="135" height="50" rx="7" fill="#f0fdf4" stroke="#86efac"/>
  <text x="819.5" y="501" text-anchor="middle" class="small">graph smoothness</text>

  <!-- (c) Global hard assignment -->
  <rect x="972" y="42" width="67" height="22" rx="11" fill="#fef3c7"/>
  <text x="1005.5" y="57" text-anchor="middle" class="phase" fill="#92400e">ASSIGN</text>
  <text x="972" y="91" class="panel-title">(c) 全局层级平衡分配</text>

  <rect x="980" y="124" width="350" height="74" rx="8" fill="#ffffff" stroke="#a78bfa" stroke-width="1.3"/>
  <rect x="997" y="143" width="64" height="35" rx="17.5" fill="#ede9fe"/>
  <text x="1029" y="165" text-anchor="middle" class="phase" fill="#6d28d9">FROZEN</text>
  <text x="1190" y="155" text-anchor="middle" class="label">Encoder + residual codebooks</text>
  <text x="1190" y="178" text-anchor="middle" class="small">all candidate Skills</text>
  <path d="M1155 198 V226" fill="none" stroke="#475569" stroke-width="1.8" marker-end="url(#arrow)"/>

  <rect x="1000" y="236" width="310" height="92" rx="8" fill="#ffffff" stroke="#fbbf24" stroke-width="1.3"/>
  <text x="1155" y="264" text-anchor="middle" class="label">Capacity-balanced matching</text>
  <rect x="1026" y="282" width="67" height="27" rx="5" fill="#fef3c7"/>
  <text x="1059.5" y="300" text-anchor="middle" class="tiny">slots</text>
  <path d="M1104 296 H1131" fill="none" stroke="#f59e0b" stroke-width="1.7" marker-end="url(#arrow)"/>
  <rect x="1139" y="282" width="90" height="27" rx="5" fill="#fff7ed"/>
  <text x="1184" y="300" text-anchor="middle" class="tiny">Hungarian</text>
  <text x="1255" y="300" text-anchor="middle" class="small">/ deferred</text>
  <path d="M1155 328 V354" fill="none" stroke="#475569" stroke-width="1.8" marker-end="url(#arrow)"/>

  <rect x="980" y="365" width="350" height="155" rx="8" fill="#ffffff" stroke="#86efac" stroke-width="1.3"/>
  <text x="1155" y="392" text-anchor="middle" class="label">Balanced prefix tree</text>
  <circle cx="1155" cy="416" r="8" fill="#475569"/>
  <path d="M1155 424 V439 M1155 433 H1068 V448 M1155 433 H1242 V448" fill="none" stroke="#475569" stroke-width="1.8"/>
  <rect x="1025" y="449" width="86" height="27" rx="5" fill="#dbeafe" stroke="#60a5fa"/>
  <text x="1068" y="467" text-anchor="middle" class="mono">L1:12</text>
  <rect x="1199" y="449" width="86" height="27" rx="5" fill="#dbeafe" stroke="#60a5fa"/>
  <text x="1242" y="467" text-anchor="middle" class="mono">L1:44</text>
  <path d="M1068 476 V491 M1242 476 V491" fill="none" stroke="#0891b2" stroke-width="1.7"/>
  <circle cx="1046" cy="501" r="8" fill="#cffafe" stroke="#0891b2"/>
  <circle cx="1090" cy="501" r="8" fill="#cffafe" stroke="#0891b2"/>
  <circle cx="1220" cy="501" r="8" fill="#cffafe" stroke="#0891b2"/>
  <circle cx="1264" cy="501" r="8" fill="#cffafe" stroke="#0891b2"/>

  <!-- (d) Quality gate -->
  <rect x="1402" y="42" width="72" height="22" rx="11" fill="#dcfce7"/>
  <text x="1438" y="57" text-anchor="middle" class="phase" fill="#047857">VALIDATE</text>
  <text x="1402" y="91" class="panel-title">(d) Code 质量门控</text>

  <rect x="1404" y="124" width="108" height="163" rx="8" fill="#ffffff" stroke="#cbd5e1" stroke-width="1.2"/>
  <text x="1458" y="150" text-anchor="middle" class="label">Raw</text>
  <line x1="1424" y1="255" x2="1492" y2="255" stroke="#94a3b8"/>
  <rect x="1430" y="202" width="13" height="53" fill="#2563eb"/>
  <rect x="1451" y="235" width="13" height="20" fill="#93c5fd"/>
  <rect x="1472" y="242" width="13" height="13" fill="#bfdbfe"/>
  <text x="1458" y="276" text-anchor="middle" class="tiny">detect collapse</text>

  <rect x="1528" y="124" width="108" height="163" rx="8" fill="#ffffff" stroke="#86efac" stroke-width="1.2"/>
  <text x="1582" y="150" text-anchor="middle" class="label">Assigned</text>
  <line x1="1548" y1="255" x2="1616" y2="255" stroke="#94a3b8"/>
  <rect x="1554" y="207" width="13" height="48" fill="#10b981"/>
  <rect x="1575" y="207" width="13" height="48" fill="#10b981"/>
  <rect x="1596" y="207" width="13" height="48" fill="#10b981"/>
  <text x="1582" y="276" text-anchor="middle" class="tiny">final code space</text>

  <rect x="1404" y="315" width="232" height="125" rx="8" fill="#ffffff" stroke="#cbd5e1" stroke-width="1.2"/>
  <circle cx="1430" cy="342" r="8" fill="#dcfce7" stroke="#059669"/>
  <path d="M1426 342 L1429 346 L1435 337" fill="none" stroke="#059669" stroke-width="2"/>
  <text x="1450" y="347" class="small">token utilization</text>
  <circle cx="1430" cy="371" r="8" fill="#dcfce7" stroke="#059669"/>
  <path d="M1426 371 L1429 375 L1435 366" fill="none" stroke="#059669" stroke-width="2"/>
  <text x="1450" y="376" class="small">normalized entropy</text>
  <circle cx="1430" cy="400" r="8" fill="#dcfce7" stroke="#059669"/>
  <path d="M1426 400 L1429 404 L1435 395" fill="none" stroke="#059669" stroke-width="2"/>
  <text x="1450" y="405" class="small">collision / max bucket</text>
  <text x="1520" y="429" text-anchor="middle" class="tiny">raw + assigned must pass</text>

  <path d="M1520 440 V466" fill="none" stroke="#059669" stroke-width="1.8" marker-end="url(#arrow-green)"/>
  <rect x="1434" y="476" width="172" height="58" rx="29" fill="#ecfdf5" stroke="#10b981" stroke-width="1.6"/>
  <text x="1520" y="501" text-anchor="middle" class="phase" fill="#047857">QUALITY GATE</text>
  <text x="1520" y="522" text-anchor="middle" class="label">freeze code interface</text>
</svg>
